<?xml version="1.0" encoding="utf-8"?>
<!-- Generator: Adobe Illustrator 19.0.0, SVG Export Plug-In . SVG Version: 6.00 Build 0)  -->
<svg version="1.1" id="Layer_1" xmlns="http://www.w3.org/2000/svg" xmlns:xlink="http://www.w3.org/1999/xlink" x="0px" y="0px"
	 viewBox="0 0 264.8 34.9" style="enable-background:new 0 0 264.8 34.9;" xml:space="preserve">
<style type="text/css">
	.st0{enable-background:new    ;}
	.st1{fill:#484748;}
</style>
<g id="XMLID_4_">
	<g id="XMLID_10_" class="st0">
		<path id="XMLID_11_" class="st1" d="M36.5,19H6.3c0.6,6.6,4.9,11.3,12,11.3c4.6,0,9.4-1.9,10.8-6.6h6.7
			c-1.3,8.6-10,10.9-17.2,10.9C6.7,34.7,0,28.2,0,18C0,6.2,7.1,0,18.8,0c11.4,0,17.7,6.2,17.7,17.1V19z M29.8,14.7
			C29.7,7.2,24.2,4.4,18.6,4.4c-6.5,0-11.1,3.1-12.1,10.3H29.8z"/>
	</g>
	<g id="XMLID_7_" class="st0">
		<path id="XMLID_8_" class="st1" d="M118.3,33.9h-7.1L97.7,7.3L84.2,33.9h-7.1L93.7,1.6h8.1L118.3,33.9z"/>
	</g>
	<g id="XMLID_1_" class="st0">
		<path id="XMLID_5_" class="st1" d="M40.5,1.2h7.1l13.6,26.6L74.7,1.2h7.1L65.1,33.5H57L40.5,1.2z"/>
	</g>
	<g id="XMLID_15_" class="st0">
		<path id="XMLID_16_" class="st1" d="M244.7,34.9c-13.1,0-20.2-6.3-20.2-17.3c0-10.5,6.7-17.3,20.2-17.3c13.1,0,20.2,6.3,20.2,17.3
			S257.8,34.9,244.7,34.9z M231.2,17.6c0,7.3,4.7,13,13.5,13s13.5-5.7,13.5-13s-4.7-13-13.5-13S231.2,10.2,231.2,17.6z"/>
	</g>
	<g id="XMLID_2_" class="st0">
		<path id="XMLID_3_" class="st1" d="M218.6,26.4c0,2.4,0.1,4.8,0.3,7.3h-5.9c-0.1-1.6-0.3-3.5-0.3-5.7h-0.1
			c-3.7,4.9-8.3,6.9-14.1,6.9c-9.1,0-15.6-5.1-15.6-15.2V1.4h6.3v18c0,7.2,4.3,11.1,10.3,11.1c6,0,12.8-3.7,12.8-13.9V1.4h6.3V26.4z
			"/>
	</g>
	<polygon id="XMLID_22_" class="st1" points="178.3,27.5 178.3,34 150.8,34 150.8,1.7 157.3,1.7 157.3,27.5 	"/>
</g>
</svg>
